<svg width="36" height="36" viewBox="0 0 36 36" fill="none" xmlns="http://www.w3.org/2000/svg">
<rect x="1" y="1" width="34" height="34" rx="3" stroke="black" stroke-opacity="0.12" stroke-width="2"/>
<g clip-path="url(#clip0_20_4040)">
<path d="M18.003 14.2657C16.0155 14.2657 14.4124 15.8688 14.4124 17.8563C14.4124 19.8438 16.0155 21.447 18.003 21.447C19.9905 21.447 21.5937 19.8438 21.5937 17.8563C21.5937 15.8688 19.9905 14.2657 18.003 14.2657ZM18.003 20.1907C16.7187 20.1907 15.6687 19.1438 15.6687 17.8563C15.6687 16.5688 16.7155 15.522 18.003 15.522C19.2905 15.522 20.3374 16.5688 20.3374 17.8563C20.3374 19.1438 19.2874 20.1907 18.003 20.1907ZM22.578 14.1188C22.578 14.5845 22.203 14.9563 21.7405 14.9563C21.2749 14.9563 20.903 14.5813 20.903 14.1188C20.903 13.6563 21.278 13.2813 21.7405 13.2813C22.203 13.2813 22.578 13.6563 22.578 14.1188ZM24.9562 14.9688C24.903 13.847 24.6468 12.8532 23.8249 12.0345C23.0062 11.2157 22.0124 10.9595 20.8905 10.9032C19.7343 10.8376 16.2687 10.8376 15.1124 10.9032C13.9937 10.9563 12.9999 11.2126 12.178 12.0313C11.3562 12.8501 11.103 13.8438 11.0468 14.9657C10.9812 16.122 10.9812 19.5876 11.0468 20.7438C11.0999 21.8657 11.3562 22.8595 12.178 23.6782C12.9999 24.497 13.9905 24.7532 15.1124 24.8095C16.2687 24.8751 19.7343 24.8751 20.8905 24.8095C22.0124 24.7563 23.0062 24.5001 23.8249 23.6782C24.6437 22.8595 24.8999 21.8657 24.9562 20.7438C25.0218 19.5876 25.0218 16.1251 24.9562 14.9688ZM23.4624 21.9845C23.2187 22.597 22.7468 23.0688 22.1312 23.3157C21.2093 23.6813 19.0218 23.597 18.003 23.597C16.9843 23.597 14.7937 23.6782 13.8749 23.3157C13.2624 23.072 12.7905 22.6001 12.5437 21.9845C12.178 21.0626 12.2624 18.8751 12.2624 17.8563C12.2624 16.8376 12.1812 14.647 12.5437 13.7282C12.7874 13.1157 13.2593 12.6438 13.8749 12.397C14.7968 12.0313 16.9843 12.1157 18.003 12.1157C19.0218 12.1157 21.2124 12.0345 22.1312 12.397C22.7437 12.6407 23.2155 13.1126 23.4624 13.7282C23.828 14.6501 23.7437 16.8376 23.7437 17.8563C23.7437 18.8751 23.828 21.0657 23.4624 21.9845Z" fill="#65676D"/>
</g>
<defs>
<clipPath id="clip0_20_4040">
<rect width="16" height="16" fill="white" transform="translate(10 9.85938)"/>
</clipPath>
</defs>
</svg>
